<svg width="32" height="32" viewBox="0 0 32 32" fill="none" xmlns="http://www.w3.org/2000/svg">
<path d="M31.1744 8.2L16.7389 0.199894C16.5018 0.0687801 16.2354 0 15.9645 0C15.6936 0 15.4271 0.0687801 15.1901 0.199894L0.824942 8.136C0.575391 8.27418 0.367319 8.47657 0.222276 8.72219C0.0772324 8.96782 0.000491925 9.24775 2.35717e-06 9.533C-0.000487211 9.81826 0.0752916 10.0985 0.219491 10.3446C0.36369 10.5907 0.571066 10.7938 0.820142 10.9328L15.2557 18.9969C15.4936 19.1297 15.7614 19.1996 16.0339 19.1999C16.3063 19.2001 16.5743 19.1308 16.8125 18.9985L31.1776 10.9984C31.4272 10.8597 31.635 10.6566 31.7796 10.4104C31.9242 10.1642 32.0003 9.88381 32 9.59828C31.9997 9.31274 31.9229 9.0325 31.7778 8.78663C31.6326 8.54075 31.4243 8.3382 31.1744 8.2Z" fill="#3C4063"/>
<path d="M15.9997 22.1698L2.37541 14.6017L0.821777 17.3985L15.2221 25.3986C15.4597 25.5306 15.7271 25.5999 15.9989 25.5999C16.2707 25.5999 16.5381 25.5306 16.7757 25.3986L31.1761 17.3985L29.6224 14.6017L15.9997 22.1698Z" fill="#3C4063"/>
<path d="M15.9997 28.5699L2.37541 21.0018L0.821777 23.7987L15.2221 31.7988C15.4597 31.9307 15.7271 32 15.9989 32C16.2707 32 16.5381 31.9307 16.7757 31.7988L31.1761 23.7987L29.6224 21.0018L15.9997 28.5699Z" fill="#3C4063"/>
</svg>
