<svg width="207" height="45" viewBox="0 0 207 45" fill="none" xmlns="http://www.w3.org/2000/svg">
<g id="LogoH">
<path id="Vector" d="M14.0899 5.655C15.8605 5.685 17.4098 6.075 18.7377 6.825C20.0657 7.575 21.0775 8.58 21.7731 9.84C22.5003 11.1 22.8639 12.525 22.8639 14.115C22.8639 15.285 22.6268 16.395 22.1525 17.445C21.7098 18.465 21.0933 19.38 20.3028 20.19C21.4411 21 22.3264 22.005 22.9587 23.205C23.6227 24.405 23.9547 25.725 23.9547 27.165C23.9547 28.695 23.5595 30.105 22.769 31.395C21.9786 32.685 20.9194 33.72 19.5914 34.5C18.2635 35.25 16.7932 35.625 15.1807 35.625H4.84155V5.655H14.0899ZM9.01515 9.705V18.615H14.0899C15.3862 18.615 16.477 18.18 17.3623 17.31C18.2476 16.44 18.6903 15.375 18.6903 14.115C18.6903 12.855 18.2476 11.805 17.3623 10.965C16.5086 10.125 15.4178 9.705 14.0899 9.705H9.01515ZM9.01515 22.665V31.575H15.1807C16.477 31.575 17.5679 31.155 18.4532 30.315C19.3385 29.445 19.7811 28.395 19.7811 27.165C19.7811 25.905 19.3385 24.84 18.4532 23.97C17.5679 23.1 16.477 22.665 15.1807 22.665H9.01515Z" fill="#3C4063"/>
<path id="Vector_2" d="M32.6338 26.085C32.6338 26.805 32.9026 27.555 33.4401 28.335C34.0092 29.115 34.6574 29.775 35.3846 30.315C36.7126 31.305 38.2618 31.8 40.0325 31.8C42.8465 31.8 45.1388 30.51 46.9094 27.93L50.5139 29.955C49.2808 31.845 47.7631 33.3 45.9609 34.32C44.1586 35.34 42.1825 35.85 40.0325 35.85C38.4199 35.85 36.8865 35.565 35.432 34.995C33.9776 34.395 32.6971 33.57 31.5904 32.52C30.4838 31.47 29.6143 30.255 28.9819 28.875C28.3812 27.495 28.0808 26.04 28.0808 24.51C28.0808 22.98 28.3812 21.525 28.9819 20.145C29.6143 18.735 30.4838 17.505 31.5904 16.455C32.6654 15.405 33.9302 14.595 35.3846 14.025C36.8707 13.455 38.4199 13.17 40.0325 13.17C41.645 13.17 43.1785 13.455 44.6329 14.025C46.119 14.595 47.3995 15.405 48.4745 16.455C50.8143 18.735 51.9841 21.375 51.9841 24.375C51.9841 24.915 51.9367 25.485 51.8418 26.085H32.6338ZM40.0325 16.86C38.7361 16.86 37.5188 17.13 36.3806 17.67C35.2423 18.21 34.3254 18.93 33.6298 19.83C32.9658 20.7 32.6338 21.63 32.6338 22.62H47.4311C47.4311 21.63 47.0833 20.7 46.3877 19.83C45.7237 18.93 44.8226 18.21 43.6844 17.67C42.5461 17.13 41.3288 16.86 40.0325 16.86Z" fill="#3C4063"/>
<path id="Vector_3" d="M58.8019 20.775C58.2011 20.775 57.6953 20.595 57.2842 20.235C56.9048 19.845 56.7151 19.365 56.7151 18.795C56.7151 18.255 56.9048 17.79 57.2842 17.4C57.6953 17.01 58.2011 16.815 58.8019 16.815C59.371 16.815 59.8611 17.01 60.2721 17.4C60.6832 17.79 60.8887 18.255 60.8887 18.795C60.8887 19.365 60.6832 19.845 60.2721 20.235C59.8611 20.595 59.371 20.775 58.8019 20.775ZM58.8019 35.625C58.2011 35.625 57.6953 35.445 57.2842 35.085C56.9048 34.695 56.7151 34.215 56.7151 33.645C56.7151 33.105 56.9048 32.64 57.2842 32.25C57.6953 31.86 58.2011 31.665 58.8019 31.665C59.371 31.665 59.8611 31.86 60.2721 32.25C60.6832 32.64 60.8887 33.105 60.8887 33.645C60.8887 34.215 60.6832 34.695 60.2721 35.085C59.8611 35.445 59.371 35.625 58.8019 35.625Z" fill="#3C4063"/>
<path id="Vector_4" d="M66.1016 35.625V5.70001H70.1803V31.575H79.6657V35.625H66.1016Z" fill="#3C4063"/>
<path id="Vector_5" d="M86.5625 9.88499C85.9618 9.88499 85.4401 9.69 84.9974 9.3C84.5864 8.88 84.3809 8.385 84.3809 7.815C84.3809 7.245 84.5864 6.765 84.9974 6.375C85.4401 5.955 85.9618 5.745 86.5625 5.745C87.1633 5.745 87.6691 5.955 88.0802 6.375C88.5228 6.765 88.7442 7.245 88.7442 7.815C88.7442 8.385 88.5228 8.88 88.0802 9.3C87.6691 9.69 87.1633 9.88499 86.5625 9.88499ZM84.618 35.625V13.125H88.6019V35.625H84.618Z" fill="#3C4063"/>
<path id="Vector_6" d="M99.9805 16.905V35.625H95.9967V16.905H93.7676V13.125H96.0441C96.1073 11.685 96.5342 10.395 97.3246 9.255C98.1467 8.115 99.2217 7.23 100.55 6.6C101.878 5.97 103.332 5.655 104.913 5.655V9.525C103.585 9.465 102.463 9.78 101.546 10.47C100.66 11.16 100.186 12.045 100.123 13.125H104.913V16.905H99.9805Z" fill="#3C4063"/>
<path id="Vector_7" d="M113.161 26.085C113.161 26.805 113.43 27.555 113.968 28.335C114.537 29.115 115.185 29.775 115.912 30.315C117.24 31.305 118.789 31.8 120.56 31.8C123.374 31.8 125.666 30.51 127.437 27.93L131.041 29.955C129.808 31.845 128.291 33.3 126.488 34.32C124.686 35.34 122.71 35.85 120.56 35.85C118.948 35.85 117.414 35.565 115.96 34.995C114.505 34.395 113.225 33.57 112.118 32.52C111.011 31.47 110.142 30.255 109.51 28.875C108.909 27.495 108.608 26.04 108.608 24.51C108.608 22.98 108.909 21.525 109.51 20.145C110.142 18.735 111.011 17.505 112.118 16.455C113.193 15.405 114.458 14.595 115.912 14.025C117.398 13.455 118.948 13.17 120.56 13.17C122.173 13.17 123.706 13.455 125.16 14.025C126.647 14.595 127.927 15.405 129.002 16.455C131.342 18.735 132.512 21.375 132.512 24.375C132.512 24.915 132.464 25.485 132.369 26.085H113.161ZM120.56 16.86C119.264 16.86 118.046 17.13 116.908 17.67C115.77 18.21 114.853 18.93 114.157 19.83C113.493 20.7 113.161 21.63 113.161 22.62H127.959C127.959 21.63 127.611 20.7 126.915 19.83C126.251 18.93 125.35 18.21 124.212 17.67C123.074 17.13 121.856 16.86 120.56 16.86Z" fill="#3C4063"/>
<path id="Vector_8" d="M137.242 35.625V5.70001H141.037V35.625H137.242Z" fill="#3C4063"/>
<path id="Vector_9" d="M148.317 9.88499C147.716 9.88499 147.194 9.69 146.752 9.3C146.341 8.88 146.135 8.385 146.135 7.815C146.135 7.245 146.341 6.765 146.752 6.375C147.194 5.955 147.716 5.745 148.317 5.745C148.917 5.745 149.423 5.955 149.834 6.375C150.277 6.765 150.498 7.245 150.498 7.815C150.498 8.385 150.277 8.88 149.834 9.3C149.423 9.69 148.917 9.88499 148.317 9.88499ZM146.372 35.625V13.125H150.356V35.625H146.372Z" fill="#3C4063"/>
<path id="Vector_10" d="M170.177 35.625V22.125C170.177 20.775 169.655 19.605 168.612 18.615C167.6 17.655 166.367 17.175 164.912 17.175C163.49 17.175 162.256 17.67 161.213 18.66C160.739 19.11 160.359 19.65 160.075 20.28C159.79 20.88 159.648 21.495 159.648 22.125V35.625H155.522V13.665H159.648V15.51C160.249 14.82 161.039 14.25 162.019 13.8C162.999 13.35 163.964 13.125 164.912 13.125C166.177 13.125 167.379 13.365 168.517 13.845C169.687 14.295 170.714 14.94 171.6 15.78C172.453 16.59 173.117 17.55 173.592 18.66C174.097 19.74 174.35 20.895 174.35 22.125V35.625H170.177Z" fill="#3C4063"/>
<path id="Vector_11" d="M182.82 26.085C182.82 26.805 183.089 27.555 183.626 28.335C184.195 29.115 184.844 29.775 185.571 30.315C186.899 31.305 188.448 31.8 190.219 31.8C193.033 31.8 195.325 30.51 197.096 27.93L200.7 29.955C199.467 31.845 197.949 33.3 196.147 34.32C194.345 35.34 192.369 35.85 190.219 35.85C188.606 35.85 187.073 35.565 185.618 34.995C184.164 34.395 182.883 33.57 181.777 32.52C180.67 31.47 179.801 30.255 179.168 28.875C178.567 27.495 178.267 26.04 178.267 24.51C178.267 22.98 178.567 21.525 179.168 20.145C179.801 18.735 180.67 17.505 181.777 16.455C182.852 15.405 184.116 14.595 185.571 14.025C187.057 13.455 188.606 13.17 190.219 13.17C191.831 13.17 193.365 13.455 194.819 14.025C196.305 14.595 197.586 15.405 198.661 16.455C201.001 18.735 202.17 21.375 202.17 24.375C202.17 24.915 202.123 25.485 202.028 26.085H182.82ZM190.219 16.86C188.922 16.86 187.705 17.13 186.567 17.67C185.429 18.21 184.512 18.93 183.816 19.83C183.152 20.7 182.82 21.63 182.82 22.62H197.617C197.617 21.63 197.27 20.7 196.574 19.83C195.91 18.93 195.009 18.21 193.871 17.67C192.732 17.13 191.515 16.86 190.219 16.86Z" fill="#3C4063"/>
</g>
</svg>
