<svg width="64" height="64" viewBox="0 0 64 64" fill="none" xmlns="http://www.w3.org/2000/svg">
    <rect width="64" height="64" rx="12" fill="#D9D9D9" />
    <path
        d="M47.1744 24.2L32.7389 16.1999C32.5018 16.0688 32.2354 16 31.9645 16C31.6936 16 31.4271 16.0688 31.1901 16.1999L16.8249 24.136C16.5754 24.2742 16.3673 24.4766 16.2223 24.7222C16.0772 24.9678 16.0005 25.2478 16 25.533C15.9995 25.8183 16.0753 26.0985 16.2195 26.3446C16.3637 26.5907 16.5711 26.7938 16.8201 26.9328L31.2557 34.9969C31.4936 35.1297 31.7614 35.1996 32.0339 35.1999C32.3063 35.2001 32.5743 35.1308 32.8125 34.9985L47.1776 26.9984C47.4272 26.8597 47.635 26.6566 47.7796 26.4104C47.9242 26.1642 48.0003 25.8838 48 25.5983C47.9997 25.3127 47.9229 25.0325 47.7778 24.7866C47.6326 24.5408 47.4243 24.3382 47.1744 24.2Z"
        fill="#3C4063" />
    <path
        d="M31.9997 38.1698L18.3754 30.6017L16.8218 33.3985L31.2221 41.3986C31.4597 41.5306 31.7271 41.5998 31.9989 41.5998C32.2707 41.5998 32.5381 41.5306 32.7757 41.3986L47.1761 33.3985L45.6224 30.6017L31.9997 38.1698Z"
        fill="#3C4063" />
    <path
        d="M31.9997 44.5699L18.3754 37.0018L16.8218 39.7987L31.2221 47.7988C31.4597 47.9307 31.7271 48 31.9989 48C32.2707 48 32.5381 47.9307 32.7757 47.7988L47.1761 39.7987L45.6224 37.0018L31.9997 44.5699Z"
        fill="#3C4063" />
</svg>